<svg xmlns="http://www.w3.org/2000/svg" version="1.1" xmlns:xlink="http://www.w3.org/1999/xlink" xmlns:svgjs="http://svgjs.dev/svgjs" viewBox="0 0 800 800"><defs><linearGradient x1="50%" y1="0%" x2="50%" y2="100%" id="ffflurry-grad" gradientTransform="rotate(270)"><stop stop-color="hsl(238, 82%, 13%)" stop-opacity="1" offset="0%"></stop><stop stop-color="hsl(205, 69%, 60%)" stop-opacity="1" offset="45%"></stop><stop stop-color="hsl(205, 69%, 80%)" stop-opacity="1" offset="100%"></stop></linearGradient></defs><rect width="100%" height="100%" fill="hsl(238, 82%, 13%)"></rect><g fill="url(#ffflurry-grad)"><rect width="118" height="4" x="316" y="748" rx="2" transform="rotate(149, 375, 750)" opacity="0.89"></rect><rect width="40" height="4" x="622" y="675" rx="2" transform="rotate(149, 642, 677)" opacity="0.31"></rect><rect width="90" height="4" x="699" y="443" rx="2" transform="rotate(149, 744, 445)" opacity="0.37"></rect><rect width="453" height="4" x="30.5" y="746" rx="2" transform="rotate(149, 257, 748)" opacity="0.55"></rect><rect width="101" height="4" x="102.5" y="716" rx="2" transform="rotate(149, 153, 718)" opacity="0.75"></rect><rect width="455" height="4" x="351.5" y="230" rx="2" transform="rotate(149, 579, 232)" opacity="0.24"></rect><rect width="213" height="4" x="284.5" y="70" rx="2" transform="rotate(149, 391, 72)" opacity="0.19"></rect><rect width="64" height="4" x="214" y="605" rx="2" transform="rotate(149, 246, 607)" opacity="0.72"></rect><rect width="307" height="4" x="485.5" y="482" rx="2" transform="rotate(149, 639, 484)" opacity="0.39"></rect><rect width="144" height="4" x="222" y="651" rx="2" transform="rotate(149, 294, 653)" opacity="0.99"></rect><rect width="426" height="4" x="449" y="320" rx="2" transform="rotate(149, 662, 322)" opacity="0.59"></rect><rect width="56" height="4" x="252" y="314" rx="2" transform="rotate(149, 280, 316)" opacity="0.37"></rect><rect width="156" height="4" x="278" y="675" rx="2" transform="rotate(149, 356, 677)" opacity="0.75"></rect><rect width="349" height="4" x="-122.5" y="722" rx="2" transform="rotate(149, 52, 724)" opacity="0.70"></rect><rect width="287" height="4" x="393.5" y="660" rx="2" transform="rotate(149, 537, 662)" opacity="0.70"></rect><rect width="147" height="4" x="325.5" y="547" rx="2" transform="rotate(149, 399, 549)" opacity="0.98"></rect><rect width="308" height="4" x="456" y="555" rx="2" transform="rotate(149, 610, 557)" opacity="0.35"></rect><rect width="400" height="4" x="466" y="229" rx="2" transform="rotate(149, 666, 231)" opacity="0.85"></rect><rect width="39" height="4" x="89.5" y="570" rx="2" transform="rotate(149, 109, 572)" opacity="0.30"></rect><rect width="597" height="4" x="8.5" y="179" rx="2" transform="rotate(149, 307, 181)" opacity="0.62"></rect><rect width="135" height="4" x="140.5" y="509" rx="2" transform="rotate(149, 208, 511)" opacity="0.71"></rect><rect width="340" height="4" x="392" y="315" rx="2" transform="rotate(149, 562, 317)" opacity="0.70"></rect><rect width="245" height="4" x="72.5" y="49" rx="2" transform="rotate(149, 195, 51)" opacity="0.24"></rect><rect width="247" height="4" x="237.5" y="347" rx="2" transform="rotate(149, 361, 349)" opacity="0.78"></rect><rect width="162" height="4" x="442" y="168" rx="2" transform="rotate(149, 523, 170)" opacity="0.63"></rect><rect width="339" height="4" x="523.5" y="593" rx="2" transform="rotate(149, 693, 595)" opacity="0.46"></rect><rect width="277" height="4" x="38.5" y="357" rx="2" transform="rotate(149, 177, 359)" opacity="0.75"></rect><rect width="148" height="4" x="561" y="397" rx="2" transform="rotate(149, 635, 399)" opacity="0.62"></rect><rect width="282" height="4" x="617" y="750" rx="2" transform="rotate(149, 758, 752)" opacity="0.39"></rect><rect width="273" height="4" x="463.5" y="624" rx="2" transform="rotate(149, 600, 626)" opacity="0.54"></rect><rect width="387" height="4" x="260.5" y="438" rx="2" transform="rotate(149, 454, 440)" opacity="0.22"></rect><rect width="313" height="4" x="284.5" y="514" rx="2" transform="rotate(149, 441, 516)" opacity="0.80"></rect><rect width="136" height="4" x="-32" y="591" rx="2" transform="rotate(149, 36, 593)" opacity="0.72"></rect><rect width="260" height="4" x="325" y="768" rx="2" transform="rotate(149, 455, 770)" opacity="0.45"></rect><rect width="418" height="4" x="533" y="41" rx="2" transform="rotate(149, 742, 43)" opacity="0.10"></rect><rect width="330" height="4" x="427" y="738" rx="2" transform="rotate(149, 592, 740)" opacity="0.90"></rect><rect width="68" height="4" x="516" y="429" rx="2" transform="rotate(149, 550, 431)" opacity="0.71"></rect><rect width="325" height="4" x="176.5" y="438" rx="2" transform="rotate(149, 339, 440)" opacity="0.36"></rect><rect width="243" height="4" x="293.5" y="628" rx="2" transform="rotate(149, 415, 630)" opacity="0.64"></rect><rect width="322" height="4" x="593" y="241" rx="2" transform="rotate(149, 754, 243)" opacity="0.25"></rect><rect width="329" height="4" x="-135.5" y="84" rx="2" transform="rotate(149, 29, 86)" opacity="0.16"></rect><rect width="302" height="4" x="-48" y="111" rx="2" transform="rotate(149, 103, 113)" opacity="0.47"></rect><rect width="116" height="4" x="37" y="364" rx="2" transform="rotate(149, 95, 366)" opacity="0.52"></rect><rect width="339" height="4" x="174.5" y="578" rx="2" transform="rotate(149, 344, 580)" opacity="0.99"></rect><rect width="96" height="4" x="-20" y="376" rx="2" transform="rotate(149, 28, 378)" opacity="0.95"></rect><rect width="308" height="4" x="38" y="440" rx="2" transform="rotate(149, 192, 442)" opacity="0.38"></rect><rect width="291" height="4" x="326.5" y="342" rx="2" transform="rotate(149, 472, 344)" opacity="0.26"></rect><rect width="199" height="4" x="667.5" y="130" rx="2" transform="rotate(149, 767, 132)" opacity="0.73"></rect><rect width="177" height="4" x="588.5" y="745" rx="2" transform="rotate(149, 677, 747)" opacity="0.71"></rect><rect width="263" height="4" x="379.5" y="583" rx="2" transform="rotate(149, 511, 585)" opacity="0.72"></rect><rect width="338" height="4" x="247" y="233" rx="2" transform="rotate(149, 416, 235)" opacity="0.33"></rect><rect width="233" height="4" x="79.5" y="258" rx="2" transform="rotate(149, 196, 260)" opacity="0.25"></rect><rect width="363" height="4" x="568.5" y="350" rx="2" transform="rotate(149, 750, 352)" opacity="0.95"></rect><rect width="370" height="4" x="-124" y="481" rx="2" transform="rotate(149, 61, 483)" opacity="0.41"></rect><rect width="388" height="4" x="432" y="48" rx="2" transform="rotate(149, 626, 50)" opacity="0.37"></rect><rect width="404" height="4" x="327" y="512" rx="2" transform="rotate(149, 529, 514)" opacity="0.72"></rect><rect width="439" height="4" x="-159.5" y="237" rx="2" transform="rotate(149, 60, 239)" opacity="0.50"></rect><rect width="268" height="4" x="539" y="138" rx="2" transform="rotate(149, 673, 140)" opacity="0.19"></rect><rect width="453" height="4" x="281.5" y="61" rx="2" transform="rotate(149, 508, 63)" opacity="0.85"></rect><rect width="406" height="4" x="89" y="508" rx="2" transform="rotate(149, 292, 510)" opacity="0.80"></rect><rect width="343" height="4" x="2.5" y="592" rx="2" transform="rotate(149, 174, 594)" opacity="0.13"></rect><rect width="224" height="4" x="-11" y="26" rx="2" transform="rotate(149, 101, 28)" opacity="1.00"></rect><rect width="88" height="4" x="497" y="769" rx="2" transform="rotate(149, 541, 771)" opacity="0.27"></rect><rect width="330" height="4" x="319" y="711" rx="2" transform="rotate(149, 484, 713)" opacity="0.33"></rect><rect width="203" height="4" x="654.5" y="647" rx="2" transform="rotate(149, 756, 649)" opacity="0.31"></rect><rect width="52" height="4" x="439" y="648" rx="2" transform="rotate(149, 465, 650)" opacity="0.66"></rect><rect width="462" height="4" x="-60" y="165" rx="2" transform="rotate(149, 171, 167)" opacity="0.16"></rect><rect width="548" height="4" x="5" y="65" rx="2" transform="rotate(149, 279, 67)" opacity="0.34"></rect><rect width="64" height="4" x="714" y="530" rx="2" transform="rotate(149, 746, 532)" opacity="0.74"></rect></g></svg>